<svg xmlns="http://www.w3.org/2000/svg" viewBox="0 0 512 512" width="512" height="512">
  <defs>
    <linearGradient id="g" x1="0" y1="0" x2="1" y2="1">
      <stop offset="0" stop-color="#6c63ff"/>
      <stop offset="0.5" stop-color="#a855f7"/>
      <stop offset="1" stop-color="#06b6d4"/>
    </linearGradient>
  </defs>
  <rect width="512" height="512" rx="112" fill="#0a0913"/>
  <rect x="24" y="24" width="464" height="464" rx="96" fill="url(#g)"/>
  <g fill="#ffffff">
    <rect x="246" y="120" width="20" height="250" rx="6"/>
    <circle cx="256" cy="112" r="22"/>
    <path d="M150 150 L362 150 L362 168 L150 168 Z"/>
    <path d="M150 159 L110 250 L190 250 Z" opacity="0.95"/>
    <path d="M362 159 L322 250 L402 250 Z" opacity="0.95"/>
    <ellipse cx="150" cy="250" rx="46" ry="14" opacity="0.6"/>
    <ellipse cx="362" cy="250" rx="46" ry="14" opacity="0.6"/>
    <rect x="196" y="370" width="120" height="20" rx="8"/>
    <rect x="170" y="392" width="172" height="22" rx="10"/>
  </g>
</svg>
